<svg width="24" height="25" viewBox="0 0 24 25" fill="none" xmlns="http://www.w3.org/2000/svg">
<path d="M12 18.6279V19.5079C12 21.3779 11.25 22.1279 9.37 22.1279H4.62C3.17 22.1279 2 20.9579 2 19.5079V14.7579C2 12.8779 2.75 12.1279 4.62 12.1279H5.5V15.6279C5.5 17.2879 6.84 18.6279 8.5 18.6279H12Z" fill="#DCDCDC"/>
<path d="M17 13.6279V14.4979C17 15.9479 15.82 17.1279 14.37 17.1279H9.62C7.75 17.1279 7 16.3779 7 14.4979V9.74787C7 8.29787 8.17 7.12787 9.62 7.12787H10.5V10.6279C10.5 12.2879 11.84 13.6279 13.5 13.6279H17Z" fill="#DCDCDC"/>
<path d="M22 4.74787V9.49787C22 11.3779 21.25 12.1279 19.37 12.1279H14.62C12.75 12.1279 12 11.3779 12 9.49787V4.74787C12 2.87787 12.75 2.12787 14.62 2.12787H19.37C21.25 2.12787 22 2.87787 22 4.74787Z" fill="#DCDCDC"/>
</svg>
