<svg width="24" height="25" viewBox="0 0 24 25" fill="none" xmlns="http://www.w3.org/2000/svg">
<path d="M18 0.127869H6C2.688 0.127869 0 2.80521 0 6.10686V13.2864V14.487C0 17.7887 2.688 20.466 6 20.466H7.8C8.124 20.466 8.556 20.6821 8.76 20.9463L10.56 23.3355C11.352 24.392 12.648 24.392 13.44 23.3355L15.24 20.9463C15.468 20.6461 15.828 20.466 16.2 20.466H18C21.312 20.466 24 17.7887 24 14.487V6.10686C24 2.80521 21.312 0.127869 18 0.127869ZM7.2 12.1339C6.528 12.1339 6 11.5936 6 10.9333C6 10.2729 6.54 9.73267 7.2 9.73267C7.86 9.73267 8.4 10.2729 8.4 10.9333C8.4 11.5936 7.872 12.1339 7.2 12.1339ZM12 12.1339C11.328 12.1339 10.8 11.5936 10.8 10.9333C10.8 10.2729 11.34 9.73267 12 9.73267C12.66 9.73267 13.2 10.2729 13.2 10.9333C13.2 11.5936 12.672 12.1339 12 12.1339ZM16.8 12.1339C16.128 12.1339 15.6 11.5936 15.6 10.9333C15.6 10.2729 16.14 9.73267 16.8 9.73267C17.46 9.73267 18 10.2729 18 10.9333C18 11.5936 17.472 12.1339 16.8 12.1339Z" fill="#DCDCDC"/>
</svg>
