<svg width="24" height="25" viewBox="0 0 24 25" fill="none" xmlns="http://www.w3.org/2000/svg">
<path d="M16.8301 15.7678C17.5001 15.3278 18.3801 15.8078 18.3801 16.6078V17.8978C18.3801 19.1678 17.3901 20.5278 16.2001 20.9278L13.0101 21.9878C12.4501 22.1778 11.5401 22.1778 10.9901 21.9878L7.80012 20.9278C6.60012 20.5278 5.62012 19.1678 5.62012 17.8978V16.5978C5.62012 15.8078 6.50012 15.3278 7.16012 15.7578L9.22012 17.0978C10.0101 17.6278 11.0101 17.8878 12.0101 17.8878C13.0101 17.8878 14.0101 17.6278 14.8001 17.0978L16.8301 15.7678Z" fill="#DCDCDC"/>
<path d="M19.98 6.58787L13.99 2.65787C12.91 1.94787 11.13 1.94787 10.05 2.65787L4.03002 6.58787C2.10002 7.83787 2.10002 10.6679 4.03002 11.9279L5.63002 12.9679L10.05 15.8479C11.13 16.5579 12.91 16.5579 13.99 15.8479L18.38 12.9679L19.75 12.0679V15.1279C19.75 15.5379 20.09 15.8779 20.5 15.8779C20.91 15.8779 21.25 15.5379 21.25 15.1279V10.2079C21.65 8.91787 21.24 7.41787 19.98 6.58787Z" fill="#DCDCDC"/>
</svg>
