<svg width="24" height="24" viewBox="0 0 24 24" fill="none" xmlns="http://www.w3.org/2000/svg">
<path d="M20.5 10.1899H17.61C15.24 10.1899 13.31 8.25994 13.31 5.88994V2.99994C13.31 2.44994 12.86 1.99994 12.31 1.99994H8.07C4.99 1.99994 2.5 3.99994 2.5 7.56994V16.4299C2.5 19.9999 4.99 21.9999 8.07 21.9999H15.93C19.01 21.9999 21.5 19.9999 21.5 16.4299V11.1899C21.5 10.6399 21.05 10.1899 20.5 10.1899ZM12.28 15.7799L10.28 17.7799C10.21 17.8499 10.12 17.9099 10.03 17.9399C9.94 17.9799 9.85 17.9999 9.75 17.9999C9.65 17.9999 9.56 17.9799 9.47 17.9399C9.39 17.9099 9.31 17.8499 9.25 17.7899C9.24 17.7799 9.23 17.7799 9.23 17.7699L7.23 15.7699C6.94 15.4799 6.94 14.9999 7.23 14.7099C7.52 14.4199 8 14.4199 8.29 14.7099L9 15.4399V11.2499C9 10.8399 9.34 10.4999 9.75 10.4999C10.16 10.4999 10.5 10.8399 10.5 11.2499V15.4399L11.22 14.7199C11.51 14.4299 11.99 14.4299 12.28 14.7199C12.57 15.0099 12.57 15.4899 12.28 15.7799Z" fill="white"/>
<path d="M17.4297 8.80999C18.3797 8.81999 19.6997 8.81999 20.8297 8.81999C21.3997 8.81999 21.6997 8.14999 21.2997 7.74999C19.8597 6.29999 17.2797 3.68999 15.7997 2.20999C15.3897 1.79999 14.6797 2.07999 14.6797 2.64999V6.13999C14.6797 7.59999 15.9197 8.80999 17.4297 8.80999Z" fill="white"/>
</svg>
