<svg width="25" height="25" viewBox="0 0 25 25" fill="none" xmlns="http://www.w3.org/2000/svg">
<path d="M7.54183 2.17126H5.56266C3.28141 2.17126 2.0835 3.3462 2.0835 5.57348V7.51468C2.0835 9.74196 3.28141 10.9169 5.55225 10.9169H7.53141C9.80225 10.9169 11.0002 9.74196 11.0002 7.51468V5.57348C11.0106 3.3462 9.81266 2.17126 7.54183 2.17126Z" fill="#DCDCDC"/>
<path d="M19.4479 2.17126H17.4688C15.1979 2.17126 14 3.3462 14 5.57348V7.51468C14 9.74196 15.1979 10.9169 17.4688 10.9169H19.4479C21.7188 10.9169 22.9167 9.74196 22.9167 7.51468V5.57348C22.9167 3.3462 21.7188 2.17126 19.4479 2.17126Z" fill="#DCDCDC"/>
<path d="M19.4479 13.8491H17.4688C15.1979 13.8491 14 15.0241 14 17.2513V19.1925C14 21.4198 15.1979 22.5948 17.4688 22.5948H19.4479C21.7188 22.5948 22.9167 21.4198 22.9167 19.1925V17.2513C22.9167 15.0241 21.7188 13.8491 19.4479 13.8491Z" fill="#DCDCDC"/>
<path d="M7.54183 13.8491H5.56266C3.28141 13.8491 2.0835 15.0241 2.0835 17.2513V19.1925C2.0835 21.43 3.28141 22.605 5.55225 22.605H7.53141C9.80225 22.605 11.0002 21.43 11.0002 19.2028V17.2616C11.0106 15.0241 9.81266 13.8491 7.54183 13.8491Z" fill="#DCDCDC"/>
</svg>
