<svg width="24" height="24" viewBox="0 0 24 24" fill="none" xmlns="http://www.w3.org/2000/svg">
<path d="M19 7.99994C20.6569 7.99994 22 6.65679 22 4.99994C22 3.34308 20.6569 1.99994 19 1.99994C17.3431 1.99994 16 3.34308 16 4.99994C16 6.65679 17.3431 7.99994 19 7.99994Z" fill="#DCDCDC"/>
<path d="M21 10.3999V16.4799C21 16.6199 20.99 16.7599 20.98 16.8899C20.97 17.0099 20.96 17.1199 20.94 17.2399C20.93 17.3599 20.91 17.4799 20.89 17.5899C20.54 20.0099 19 21.5399 16.59 21.8899C16.48 21.9099 16.36 21.9299 16.24 21.9399C16.12 21.9599 16.01 21.9699 15.89 21.9799C15.76 21.9899 15.62 21.9999 15.48 21.9999H7.52C7.38 21.9999 7.24 21.9899 7.11 21.9799C6.99 21.9699 6.88 21.9599 6.76 21.9399C6.64 21.9299 6.52 21.9099 6.41 21.8899C4 21.5399 2.46 20.0099 2.11 17.5899C2.09 17.4799 2.07 17.3599 2.06 17.2399C2.04 17.1199 2.03 17.0099 2.02 16.8899C2.01 16.7599 2 16.6199 2 16.4799V8.51994C2 8.37994 2.01 8.23994 2.02 8.10994C2.03 7.98994 2.04 7.87994 2.06 7.75994C2.07 7.63994 2.09 7.51994 2.11 7.40994C2.46 4.98994 4 3.45994 6.41 3.10994C6.52 3.08994 6.64 3.06994 6.76 3.05994C6.88 3.03994 6.99 3.02994 7.11 3.01994C7.24 3.00994 7.38 2.99994 7.52 2.99994H13.6C14.24 2.99994 14.7 3.57994 14.58 4.19994C14.58 4.21994 14.57 4.23994 14.57 4.25994C14.55 4.35994 14.54 4.45994 14.52 4.56994C14.48 4.98994 14.5 5.43994 14.59 5.89994C14.62 6.01994 14.64 6.11994 14.68 6.22994C14.76 6.55994 14.89 6.86994 15.06 7.15994C15.12 7.27994 15.2 7.39994 15.27 7.50994C15.6 7.98994 16.01 8.39994 16.49 8.72994C16.6 8.79994 16.72 8.87994 16.84 8.93994C17.13 9.10994 17.44 9.23994 17.77 9.31994C17.88 9.35994 17.98 9.37994 18.1 9.40994C18.56 9.49994 19.01 9.51994 19.43 9.47994C19.54 9.45994 19.64 9.44994 19.74 9.42994C19.76 9.42994 19.78 9.41994 19.8 9.41994C20.42 9.29994 21 9.75994 21 10.3999Z" fill="#DCDCDC"/>
</svg>
