<svg width="25" height="25" viewBox="0 0 25 25" fill="none" xmlns="http://www.w3.org/2000/svg">
<path d="M22.3436 14.2083V15.2499C22.3436 15.5312 22.1249 15.7604 21.8332 15.7708H20.3124C19.7603 15.7708 19.2603 15.3645 19.2186 14.8229C19.1874 14.4999 19.3124 14.1979 19.5207 13.9895C19.7082 13.7916 19.9686 13.6874 20.2499 13.6874H21.8228C22.1249 13.6979 22.3436 13.927 22.3436 14.2083Z" fill="#DCDCDC"/>
<path d="M18.7397 13.2187C18.2189 13.7291 17.9689 14.4895 18.1772 15.2812C18.4481 16.2499 19.396 16.8645 20.396 16.8645H21.3022C21.8752 16.8645 22.3439 17.3333 22.3439 17.9062V18.1041C22.3439 20.2604 20.5835 22.0208 18.4272 22.0208H6.46891C4.31266 22.0208 2.55225 20.2604 2.55225 18.1041V11.0937C2.55225 9.81244 3.16683 8.67703 4.11475 7.96869C4.771 7.46869 5.5835 7.17702 6.46891 7.17702H18.4272C20.5835 7.17702 22.3439 8.93744 22.3439 11.0937V11.552C22.3439 12.1249 21.8752 12.5937 21.3022 12.5937H20.2397C19.6564 12.5937 19.1252 12.8229 18.7397 13.2187Z" fill="#DCDCDC"/>
<path d="M16.8749 5.02077C17.1561 5.30202 16.9165 5.73952 16.5207 5.73952L8.52069 5.7291C8.06236 5.7291 7.82277 5.1666 8.15611 4.84368L9.84361 3.14577C11.2707 1.7291 13.5832 1.7291 15.0103 3.14577L16.8332 4.98952C16.8436 4.99993 16.8644 5.01035 16.8749 5.02077Z" fill="#DCDCDC"/>
</svg>
