<svg width="24" height="25" viewBox="0 0 24 25" fill="none" xmlns="http://www.w3.org/2000/svg">
<path d="M17.53 7.89787C17.46 7.88787 17.39 7.88787 17.32 7.89787C15.77 7.84787 14.54 6.57787 14.54 5.01787C14.54 3.42787 15.83 2.12787 17.43 2.12787C19.02 2.12787 20.32 3.41787 20.32 5.01787C20.31 6.57787 19.08 7.84787 17.53 7.89787Z" fill="#DCDCDC"/>
<path d="M20.7901 14.8278C19.6701 15.5778 18.1001 15.8578 16.6501 15.6678C17.0301 14.8478 17.2301 13.9378 17.2401 12.9778C17.2401 11.9778 17.0201 11.0278 16.6001 10.1978C18.0801 9.99784 19.6501 10.2778 20.7801 11.0278C22.3601 12.0678 22.3601 13.7778 20.7901 14.8278Z" fill="#DCDCDC"/>
<path d="M6.44016 7.89787C6.51016 7.88787 6.58016 7.88787 6.65016 7.89787C8.20016 7.84787 9.43016 6.57787 9.43016 5.01787C9.43016 3.41787 8.14016 2.12787 6.54016 2.12787C4.95016 2.12787 3.66016 3.41787 3.66016 5.01787C3.66016 6.57787 4.89016 7.84787 6.44016 7.89787Z" fill="#DCDCDC"/>
<path d="M6.55012 12.9779C6.55012 13.9479 6.76012 14.8679 7.14012 15.6979C5.73012 15.8479 4.26012 15.5479 3.18012 14.8379C1.60012 13.7879 1.60012 12.0778 3.18012 11.0278C4.25012 10.3078 5.76012 10.0179 7.18012 10.1779C6.77012 11.0179 6.55012 11.9679 6.55012 12.9779Z" fill="#DCDCDC"/>
<path d="M12.1198 15.9979C12.0398 15.9879 11.9498 15.9879 11.8598 15.9979C10.0198 15.9379 8.5498 14.4279 8.5498 12.5679C8.5598 10.6679 10.0898 9.12787 11.9998 9.12787C13.8998 9.12787 15.4398 10.6679 15.4398 12.5679C15.4298 14.4279 13.9698 15.9379 12.1198 15.9979Z" fill="#DCDCDC"/>
<path d="M8.8698 18.0679C7.3598 19.0779 7.3598 20.7379 8.8698 21.7379C10.5898 22.8879 13.4098 22.8879 15.1298 21.7379C16.6398 20.7279 16.6398 19.0679 15.1298 18.0679C13.4198 16.9179 10.5998 16.9179 8.8698 18.0679Z" fill="#DCDCDC"/>
</svg>
