<svg width="24" height="25" viewBox="0 0 24 25" fill="none" xmlns="http://www.w3.org/2000/svg">
<path d="M19.5099 5.97787L13.5699 2.54787C12.5999 1.98787 11.3999 1.98787 10.4199 2.54787L4.48992 5.97787C3.51992 6.53787 2.91992 7.57787 2.91992 8.70787V15.5479C2.91992 16.6679 3.51992 17.7079 4.48992 18.2779L10.4299 21.7079C11.3999 22.2679 12.5999 22.2679 13.5799 21.7079L19.5199 18.2779C20.4899 17.7179 21.0899 16.6779 21.0899 15.5479V8.70787C21.0799 7.57787 20.4799 6.54787 19.5099 5.97787ZM11.9999 7.46787C13.2899 7.46787 14.3299 8.50787 14.3299 9.79787C14.3299 11.0879 13.2899 12.1279 11.9999 12.1279C10.7099 12.1279 9.66992 11.0879 9.66992 9.79787C9.66992 8.51787 10.7099 7.46787 11.9999 7.46787ZM14.6799 16.7879H9.31992C8.50992 16.7879 8.03992 15.8879 8.48992 15.2179C9.16992 14.2079 10.4899 13.5279 11.9999 13.5279C13.5099 13.5279 14.8299 14.2079 15.5099 15.2179C15.9599 15.8779 15.4799 16.7879 14.6799 16.7879Z" fill="#DCDCDC"/>
</svg>
