<svg width="32" height="32" viewBox="0 0 32 32" fill="none" xmlns="http://www.w3.org/2000/svg">
<path d="M28.2812 11.0523C28.6404 11.6441 28.1632 12.3334 27.4709 12.3334H3.66601C3.11373 12.3334 2.66602 11.8856 2.66602 11.3334V8.56002C2.66602 5.30669 5.30602 2.66669 8.55935 2.66669H11.6527C13.826 2.66669 14.506 3.37335 15.3727 4.53335L17.2393 7.01335C17.6527 7.56002 17.706 7.62669 18.4793 7.62669H22.1993C24.7749 7.62669 27.0335 8.99726 28.2812 11.0523Z" fill="white"/>
<path d="M29.3094 15.3295C29.3075 14.7785 28.8603 14.3329 28.3094 14.3329L3.666 14.3333C3.11372 14.3333 2.66602 14.7811 2.66602 15.3333V22.2C2.66602 26.1334 5.86602 29.3334 9.79935 29.3334H22.1993C26.1327 29.3334 29.3327 26.1334 29.3327 22.2L29.3094 15.3295ZM19.3327 22.3334H17.0793V24.6667C17.0793 25.2134 16.626 25.6667 16.0793 25.6667C15.5194 25.6667 15.0793 25.2134 15.0793 24.6667V22.3334H12.666C12.1193 22.3334 11.666 21.88 11.666 21.3334C11.666 20.7867 12.1193 20.3334 12.666 20.3334H15.0793V18C15.0793 17.4534 15.5194 17 16.0793 17C16.626 17 17.0793 17.4534 17.0793 18V20.3334H19.3327C19.8793 20.3334 20.3327 20.7867 20.3327 21.3334C20.3327 21.88 19.8793 22.3334 19.3327 22.3334Z" fill="white"/>
</svg>
