<svg width="17" height="17" viewBox="0 0 17 17" fill="#fff" xmlns="http://www.w3.org/2000/svg">
<path d="M16.435 16.1049L14 13.6849V4.37494L12.85 2.25994C12.7652 2.09869 12.6379 1.96368 12.4819 1.8695C12.326 1.77531 12.1472 1.72553 11.965 1.72553C11.7828 1.72553 11.6041 1.77531 11.4481 1.8695C11.2921 1.96368 11.1648 2.09869 11.08 2.25994L10 4.37994V9.70494L0.855008 0.604939C0.785073 0.534425 0.695723 0.486334 0.598349 0.466799C0.500975 0.447265 0.39999 0.45717 0.308268 0.495254C0.216546 0.533337 0.138243 0.597873 0.0833423 0.680632C0.0284418 0.763392 -0.000569089 0.860627 8.45848e-06 0.959939V4.99994H1.08501V5.79994H8.45848e-06V8.99994H1.08501V9.79994H8.45848e-06V13.1249H1.08501V13.9249H8.45848e-06V16.4599C8.45848e-06 16.5925 0.0526869 16.7197 0.146455 16.8135C0.240223 16.9073 0.3674 16.9599 0.500008 16.9599H16.08C16.1793 16.9605 16.2766 16.9315 16.3593 16.8766C16.4421 16.8217 16.5066 16.7434 16.5447 16.6517C16.5828 16.56 16.5927 16.459 16.5731 16.3616C16.5536 16.2642 16.5055 16.1749 16.435 16.1049ZM4.00001 12.9999V8.46994L8.53501 12.9999H4.00001ZM13 14.0549H11V12.8399H13V14.0549ZM13 12.0549H11V4.62494L11.97 2.73994L13 4.62994V12.0549Z" fill="white"/>
</svg>
