<svg width="19" height="18" viewBox="0 0 19 18" fill="none" xmlns="http://www.w3.org/2000/svg">
<path d="M12.1719 8.56055L13.3145 9.70312L11.8907 11.127C11.7852 11.2324 11.7852 11.3379 11.8907 11.4434L12.1895 11.7422C12.295 11.8477 12.4004 11.8477 12.5059 11.7422L13.9297 10.3184L16.127 12.5156L14.7032 13.9395C14.5977 14.0449 14.5977 14.1445 14.7032 14.2383L15.002 14.5547C15.1075 14.6602 15.2129 14.6602 15.3184 14.5547L16.7422 13.1309L17.8497 14.2383C17.9551 14.3438 18.0079 14.4727 18.0079 14.625C18.0079 14.7773 17.9551 14.9121 17.8497 15.0293L15.0372 17.8418C14.92 17.9473 14.7852 18 14.6329 18C14.4805 18 14.3516 17.9473 14.2461 17.8418L8.56838 12.1641L5.26369 15.4688C5.07619 15.6562 4.84767 15.75 4.57814 15.75C4.30861 15.75 4.08009 15.6562 3.89259 15.4688L2.55665 14.1152C2.36915 13.9277 2.2754 13.7021 2.2754 13.4385C2.2754 13.1748 2.36915 12.9492 2.55665 12.7617L5.86134 9.45703L0.166016 3.76172C0.060547 3.65625 0.0078125 3.52734 0.0078125 3.375C0.0078125 3.22266 0.060547 3.09375 0.166016 2.98828L2.97852 0.158203C3.09571 0.0527344 3.23048 0 3.38282 0C3.53517 0 3.66407 0.0527344 3.76954 0.158203L4.87697 1.26562L3.45313 2.68945C3.34767 2.79492 3.34767 2.90039 3.45313 3.00586L3.75196 3.30469C3.85743 3.41016 3.9629 3.41016 4.06837 3.30469L5.4922 1.88086L7.68948 4.07812L6.26564 5.50195C6.16017 5.60742 6.16017 5.71289 6.26564 5.81836L6.56447 6.11719C6.66994 6.22266 6.77541 6.22266 6.88088 6.11719L8.30471 4.69336L9.44729 5.85352L15.0196 0.28125C15.2071 0.09375 15.4327 0 15.6963 0C15.96 0 16.1856 0.09375 16.3731 0.28125L17.7266 1.63477C17.9141 1.82227 18.0079 2.04785 18.0079 2.31152C18.0079 2.5752 17.9141 2.80078 17.7266 2.98828L12.1719 8.56055ZM1.16797 14.2031C1.19141 14.2969 1.23243 14.373 1.29102 14.4316L3.57618 16.7168C3.63478 16.7754 3.71095 16.8164 3.8047 16.8398C3.7461 16.957 3.69923 17.0273 3.66407 17.0508L0.570314 18C0.289063 18 0.125 17.9766 0.0781252 17.9297C0.0312501 17.8828 0.0078125 17.7188 0.0078125 17.4375L0.957034 14.3438C0.980472 14.3203 1.05078 14.2734 1.16797 14.2031Z" fill="white"/>
</svg>
