<svg width="14" height="14" viewBox="0 0 14 14" fill="none" xmlns="http://www.w3.org/2000/svg">
<path d="M5 0H9V14H5V0Z" fill="white"/>
<path d="M0 14V5H4V14H0Z" fill="white"/>
<path d="M2 0C1.46957 0 0.960859 0.210714 0.585786 0.585786C0.210714 0.960859 0 1.46957 0 2C0 2.53043 0.210714 3.03914 0.585786 3.41421C0.960859 3.78929 1.46957 4 2 4C2.53043 4 3.03914 3.78929 3.41421 3.41421C3.78929 3.03914 4 2.53043 4 2C4 1.46957 3.78929 0.960859 3.41421 0.585786C3.03914 0.210714 2.53043 0 2 0Z" fill="white"/>
<path d="M10 0H14V4H10V0Z" fill="white"/>
<path d="M14 5H10V9H14V5Z" fill="white"/>
</svg>
