<svg width="22" height="12" viewBox="0 0 22 12" fill="none" xmlns="http://www.w3.org/2000/svg">
<path d="M18.93 4.61006C18.6656 4.34439 18.3489 4.13665 18 4.00006C17.6502 3.86191 17.2758 3.79724 16.9 3.81006C16.112 3.79569 15.3453 4.06547 14.74 4.57006V4.52006C14.7409 3.9146 14.5921 3.31831 14.3067 2.78434C14.0213 2.25036 13.6082 1.79528 13.1043 1.45966C12.6004 1.12404 12.0213 0.918312 11.4186 0.860803C10.8158 0.803293 10.2083 0.895793 9.64996 1.13006C8.89817 1.43525 8.27112 1.9848 7.86996 2.69006C7.55599 2.13596 7.10324 1.67311 6.55621 1.347C6.00917 1.02088 5.38669 0.84273 4.74996 0.830057C4.1158 0.820031 3.4895 0.971443 2.92996 1.27006C2.3699 1.57053 1.89774 2.01168 1.55996 2.55006C1.22548 3.09002 1.03285 3.70574 0.999957 4.34006C0.95595 5.29888 1.28933 6.2368 1.92863 6.95274C2.56794 7.66869 3.46228 8.10568 4.41996 8.17006L2.81996 10.9301H5.20996L7.85996 6.34006C8.15664 6.86636 8.58 7.31029 9.09164 7.63159C9.60328 7.9529 10.187 8.14142 10.79 8.18006L9.19996 10.9401H11.6L13.46 7.71006C13.4645 8.3839 13.6619 9.04235 14.0287 9.60762C14.3955 10.1729 14.9164 10.6214 15.53 10.9001C16.3614 11.2506 17.2957 11.2685 18.14 10.9501C18.4925 10.7752 18.8003 10.5221 19.04 10.2101V10.9401H21.04V1.06006H18.93V4.61006ZM6.14996 5.33006C6.00005 5.58365 5.78645 5.79366 5.53035 5.93925C5.27425 6.08484 4.98455 6.16096 4.68996 6.16006C4.39429 6.18173 4.09804 6.12661 3.82996 6.00006C3.57403 5.84935 3.36066 5.63599 3.20996 5.38006C3.067 5.11268 2.99472 4.81321 2.99996 4.51006C2.99993 4.06529 3.17523 3.63843 3.48785 3.32206C3.80048 3.00569 4.22522 2.82532 4.66996 2.82006C4.96564 2.81912 5.256 2.89862 5.50996 3.05006C5.76962 3.19138 5.98443 3.40272 6.12996 3.66006C6.28011 3.9109 6.35959 4.19771 6.35996 4.49006C6.36273 4.78338 6.29044 5.07255 6.14996 5.33006ZM12.53 5.33006C12.3844 5.58739 12.1696 5.79873 11.91 5.94006C11.6571 6.09297 11.3653 6.16938 11.07 6.16006C10.7761 6.15719 10.4875 6.08161 10.23 5.94006C9.97483 5.79167 9.76418 5.57756 9.61996 5.32006C9.46964 5.06382 9.3904 4.77213 9.3904 4.47506C9.3904 4.17799 9.46964 3.88629 9.61996 3.63006C9.7713 3.37724 9.98471 3.16727 10.24 3.02006C10.4939 2.86862 10.7843 2.78912 11.08 2.79006C11.3752 2.79202 11.6649 2.87132 11.92 3.02006C12.3024 3.24211 12.5826 3.60521 12.7003 4.03146C12.8181 4.45772 12.7641 4.91316 12.55 5.30006L12.53 5.33006ZM18.83 8.33006C18.6453 8.68027 18.3456 8.95607 17.9812 9.11092C17.6168 9.26577 17.2102 9.29019 16.83 9.18006C16.4223 9.07683 16.0665 8.8278 15.83 8.48006C15.6024 8.14216 15.4998 7.73546 15.54 7.33006C15.5819 6.92538 15.762 6.54751 16.05 6.26006C16.358 5.95298 16.7693 5.7716 17.2037 5.75126C17.6382 5.73092 18.0646 5.87309 18.4 6.15006C18.7162 6.4051 18.9326 6.76331 19.0112 7.1619C19.0898 7.56049 19.0257 7.97403 18.83 8.33006Z" fill="white"/>
</svg>
