<svg width="12" height="24" viewBox="0 0 12 24" fill="none" xmlns="http://www.w3.org/2000/svg">
<path d="M9.72866 23.5696C9.48043 23.5705 9.23517 23.5157 9.01089 23.4093C8.78661 23.3029 8.58902 23.1476 8.43264 22.9549L0.407283 12.9855C0.162897 12.6882 0.0292969 12.3152 0.0292969 11.9304C0.0292969 11.5455 0.162897 11.1726 0.407283 10.8753L8.71511 0.905908C8.99714 0.566589 9.40241 0.353203 9.84177 0.312695C10.2811 0.272186 10.7186 0.407873 11.0579 0.689905C11.3972 0.971936 11.6106 1.37721 11.6511 1.81657C11.6916 2.25593 11.5559 2.69339 11.2739 3.03271L3.84672 11.9387L11.0247 20.8447C11.2279 21.0886 11.3569 21.3856 11.3966 21.7005C11.4363 22.0155 11.3849 22.3352 11.2486 22.6219C11.1122 22.9085 10.8966 23.1501 10.6273 23.3181C10.3579 23.4861 10.0461 23.5734 9.72866 23.5696Z" fill="black"/>
</svg>
