<svg width="30" height="30" viewBox="0 0 30 30" fill="none" xmlns="http://www.w3.org/2000/svg">
<path d="M15 30C6.7155 30 0 23.2845 0 15C0 6.7155 6.7155 0 15 0C23.2845 0 30 6.7155 30 15C29.991 23.28 23.28 29.991 15 30ZM14.976 27H15C18.1816 26.9968 21.2316 25.7303 23.4796 23.4789C25.7277 21.2275 26.9896 18.1756 26.988 14.994C26.9864 11.8124 25.7214 8.76174 23.4712 6.5126C21.2209 4.26346 18.1696 3.00001 14.988 3.00001C11.8064 3.00001 8.7551 4.26346 6.50484 6.5126C4.25458 8.76174 2.98959 11.8124 2.988 14.994C2.98641 18.1756 4.24834 21.2275 6.49636 23.4789C8.74437 25.7303 11.7944 26.9968 14.976 27ZM12 22.5L6 16.5L8.115 14.385L12 18.255L21.885 8.37L24 10.5L12 22.5Z" fill="#2ED903"/>
</svg>
