<svg width="24" height="24" viewBox="0 0 24 24" fill="none" xmlns="http://www.w3.org/2000/svg">
<path d="M4.40039 2.3999C4.40039 2.93034 4.18968 3.43904 3.8146 3.81412C3.43953 4.18919 2.93082 4.3999 2.40039 4.3999C1.86996 4.3999 1.36125 4.18919 0.986177 3.81412C0.611104 3.43904 0.400391 2.93034 0.400391 2.3999C0.400391 1.86947 0.611104 1.36076 0.986177 0.985689C1.36125 0.610616 1.86996 0.399902 2.40039 0.399902C2.93082 0.399902 3.43953 0.610616 3.8146 0.985689C4.18968 1.36076 4.40039 1.86947 4.40039 2.3999ZM23.6004 21.5999C23.6004 22.1303 23.3897 22.639 23.0146 23.0141C22.6395 23.3892 22.1308 23.5999 21.6004 23.5999C21.07 23.5999 20.5613 23.3892 20.1862 23.0141C19.8111 22.639 19.6004 22.1303 19.6004 21.5999C19.6004 21.0695 19.8111 20.5608 20.1862 20.1857C20.5613 19.8106 21.07 19.5999 21.6004 19.5999C22.1308 19.5999 22.6395 19.8106 23.0146 20.1857C23.3897 20.5608 23.6004 21.0695 23.6004 21.5999ZM21.6004 13.9999C22.1308 13.9999 22.6395 13.7892 23.0146 13.4141C23.3897 13.039 23.6004 12.5303 23.6004 11.9999C23.6004 11.4695 23.3897 10.9608 23.0146 10.5857C22.6395 10.2106 22.1308 9.9999 21.6004 9.9999C21.07 9.9999 20.5613 10.2106 20.1862 10.5857C19.8111 10.9608 19.6004 11.4695 19.6004 11.9999C19.6004 12.5303 19.8111 13.039 20.1862 13.4141C20.5613 13.7892 21.07 13.9999 21.6004 13.9999ZM23.6004 2.3999C23.6004 2.93034 23.3897 3.43904 23.0146 3.81412C22.6395 4.18919 22.1308 4.3999 21.6004 4.3999C21.07 4.3999 20.5613 4.18919 20.1862 3.81412C19.8111 3.43904 19.6004 2.93034 19.6004 2.3999C19.6004 1.86947 19.8111 1.36076 20.1862 0.985689C20.5613 0.610616 21.07 0.399902 21.6004 0.399902C22.1308 0.399902 22.6395 0.610616 23.0146 0.985689C23.3897 1.36076 23.6004 1.86947 23.6004 2.3999ZM12.0004 23.5999C12.5308 23.5999 13.0395 23.3892 13.4146 23.0141C13.7897 22.639 14.0004 22.1303 14.0004 21.5999C14.0004 21.0695 13.7897 20.5608 13.4146 20.1857C13.0395 19.8106 12.5308 19.5999 12.0004 19.5999C11.47 19.5999 10.9613 19.8106 10.5862 20.1857C10.2111 20.5608 10.0004 21.0695 10.0004 21.5999C10.0004 22.1303 10.2111 22.639 10.5862 23.0141C10.9613 23.3892 11.47 23.5999 12.0004 23.5999ZM14.0004 11.9999C14.0004 12.5303 13.7897 13.039 13.4146 13.4141C13.0395 13.7892 12.5308 13.9999 12.0004 13.9999C11.47 13.9999 10.9613 13.7892 10.5862 13.4141C10.2111 13.039 10.0004 12.5303 10.0004 11.9999C10.0004 11.4695 10.2111 10.9608 10.5862 10.5857C10.9613 10.2106 11.47 9.9999 12.0004 9.9999C12.5308 9.9999 13.0395 10.2106 13.4146 10.5857C13.7897 10.9608 14.0004 11.4695 14.0004 11.9999ZM12.0004 4.3999C12.5308 4.3999 13.0395 4.18919 13.4146 3.81412C13.7897 3.43904 14.0004 2.93034 14.0004 2.3999C14.0004 1.86947 13.7897 1.36076 13.4146 0.985689C13.0395 0.610616 12.5308 0.399902 12.0004 0.399902C11.47 0.399902 10.9613 0.610616 10.5862 0.985689C10.2111 1.36076 10.0004 1.86947 10.0004 2.3999C10.0004 2.93034 10.2111 3.43904 10.5862 3.81412C10.9613 4.18919 11.47 4.3999 12.0004 4.3999ZM4.40039 21.5999C4.40039 22.1303 4.18968 22.639 3.8146 23.0141C3.43953 23.3892 2.93082 23.5999 2.40039 23.5999C1.86996 23.5999 1.36125 23.3892 0.986177 23.0141C0.611104 22.639 0.400391 22.1303 0.400391 21.5999C0.400391 21.0695 0.611104 20.5608 0.986177 20.1857C1.36125 19.8106 1.86996 19.5999 2.40039 19.5999C2.93082 19.5999 3.43953 19.8106 3.8146 20.1857C4.18968 20.5608 4.40039 21.0695 4.40039 21.5999ZM2.40039 13.9999C2.93082 13.9999 3.43953 13.7892 3.8146 13.4141C4.18968 13.039 4.40039 12.5303 4.40039 11.9999C4.40039 11.4695 4.18968 10.9608 3.8146 10.5857C3.43953 10.2106 2.93082 9.9999 2.40039 9.9999C1.86996 9.9999 1.36125 10.2106 0.986177 10.5857C0.611104 10.9608 0.400391 11.4695 0.400391 11.9999C0.400391 12.5303 0.611104 13.039 0.986177 13.4141C1.36125 13.7892 1.86996 13.9999 2.40039 13.9999Z" fill="black"/>
</svg>
