<svg width="512" height="512" viewBox="0 0 512 512" fill="none" xmlns="http://www.w3.org/2000/svg">
<path d="M491 415.997L216.314 6.16339e-07L216.314 95.4198L279.037 199.565L310.398 251.637L378.381 296.13L349.393 314.227L467.203 512L491 415.997Z" fill="#8EDDE6"/>
<path d="M22 415.997L296.686 -2.48503e-05L296.686 95.4198L233.963 199.565L202.602 251.637L134.619 296.13L163.607 314.227L45.7971 512L22 415.997Z" fill="#2697FE"/>
<path d="M310.155 331.412L365.739 296.636L259.726 230.324V292.84L310.155 331.412Z" fill="#2697FE"/>
<path d="M202.767 331.412L147.183 296.636L253.196 230.324V292.84L202.767 331.412Z" fill="#8EDDE5"/>
<path d="M280.048 388.754V317.252L255.973 300.8L232.924 317.252V424.929L328.413 498.22V425.867L280.048 388.754Z" fill="#FF82BE"/>
</svg>
