<svg width="32" height="30" viewBox="0 0 32 30" fill="none" xmlns="http://www.w3.org/2000/svg">
<path d="M10.708 9.238L15.076 0.584C15.1599 0.409907 15.2909 0.262867 15.4543 0.159619C15.6177 0.0563719 15.8067 0.00106656 16 0C16.366 0 16.732 0.194 16.93 0.584L21.298 9.238L31.094 10.63C31.3381 10.6684 31.5616 10.7898 31.7267 10.9738C31.8917 11.1578 31.9882 11.3931 32 11.64C32.0139 11.8044 31.9906 11.9698 31.9317 12.1239C31.8729 12.278 31.78 12.4168 31.66 12.53L24.614 19.242L26.274 28.702C26.43 29.588 25.554 30.282 24.782 29.886L16 25.374L7.22197 29.886C7.13016 29.9337 7.03174 29.9674 6.92997 29.986C6.24597 30.106 5.59397 29.478 5.72997 28.702L7.38997 19.242L0.345975 12.53C0.236466 12.4264 0.149422 12.3014 0.0902455 12.1627C0.0310691 12.0241 0.00102393 11.8747 0.00197502 11.724C0.00207904 11.5109 0.0608977 11.3019 0.171975 11.12C0.250772 10.9881 0.358173 10.8757 0.486251 10.7908C0.614329 10.706 0.759815 10.6511 0.911975 10.63L10.708 9.238ZM16 23.054C16.1614 23.0533 16.3206 23.0918 16.464 23.166L23.836 26.954L22.448 19.04C22.4152 18.858 22.4276 18.6707 22.4841 18.4946C22.5406 18.3185 22.6394 18.159 22.772 18.03L28.586 12.49L20.482 11.338C20.3142 11.3127 20.155 11.247 20.0181 11.1467C19.8812 11.0464 19.7707 10.9144 19.696 10.762L16.002 3.446L16 3.452V23.052V23.054Z" fill="#FFD981"/>
</svg>
