<svg width="30" height="30" viewBox="0 0 30 30" fill="none" xmlns="http://www.w3.org/2000/svg">
<path d="M15.0009 28.5665C15.5259 28.5544 16.0296 28.3571 16.4231 28.0094C16.8165 27.6616 17.0744 27.186 17.1509 26.6665H12.7676C12.8463 27.2001 13.1162 27.6869 13.527 28.0364C13.9378 28.3859 14.4616 28.5743 15.0009 28.5665Z" fill="#C4C4C4"/>
<path d="M27.091 23.1915C26.2874 22.4751 25.5839 21.6539 24.9993 20.7498C24.3612 19.502 23.9787 18.1392 23.8743 16.7415V12.6248C23.871 12.1248 23.8264 11.6259 23.741 11.1332C23.0851 11.0021 22.4547 10.7657 21.8743 10.4332C22.0956 11.1455 22.208 11.8872 22.2077 12.6332V16.7498C22.3098 18.4549 22.7788 20.1177 23.5827 21.6248C24.158 22.5365 24.8407 23.3758 25.616 24.1248H4.27435C5.04969 23.3758 5.73235 22.5365 6.30768 21.6248C7.11153 20.1177 7.58054 18.4549 7.68268 16.7498V12.6248C7.6783 11.6604 7.86419 10.7046 8.22972 9.8121C8.59524 8.91962 9.13323 8.108 9.81286 7.42372C10.4925 6.73944 11.3004 6.19595 12.1904 5.82435C13.0804 5.45275 14.0349 5.26035 14.9993 5.25817C16.4108 5.2593 17.7906 5.67671 18.966 6.45817C18.8364 5.98233 18.7637 5.4928 18.7493 4.99984V4.47484C17.8792 4.0468 16.9445 3.76525 15.9827 3.6415V2.5915C15.9827 2.29645 15.8655 2.01348 15.6568 1.80485C15.4482 1.59621 15.1652 1.479 14.8702 1.479C14.5751 1.479 14.2922 1.59621 14.0835 1.80485C13.8749 2.01348 13.7577 2.29645 13.7577 2.5915V3.68317C11.6041 3.98696 9.63316 5.05962 8.2087 6.70311C6.78424 8.34661 6.00246 10.45 6.00768 12.6248V16.7415C5.90331 18.1392 5.52083 19.502 4.88268 20.7498C4.30842 21.6518 3.61618 22.473 2.82435 23.1915C2.73546 23.2696 2.66422 23.3657 2.61536 23.4735C2.56651 23.5813 2.54117 23.6982 2.54102 23.8165V24.9498C2.54102 25.1709 2.62881 25.3828 2.78509 25.5391C2.94137 25.6954 3.15334 25.7832 3.37435 25.7832H26.541C26.762 25.7832 26.974 25.6954 27.1303 25.5391C27.2866 25.3828 27.3743 25.1709 27.3743 24.9498V23.8165C27.3742 23.6982 27.3489 23.5813 27.3 23.4735C27.2512 23.3657 27.1799 23.2696 27.091 23.1915Z" fill="#C4C4C4"/>
<path d="M25.0007 9.16683C27.3018 9.16683 29.1673 7.30135 29.1673 5.00016C29.1673 2.69898 27.3018 0.833496 25.0007 0.833496C22.6995 0.833496 20.834 2.69898 20.834 5.00016C20.834 7.30135 22.6995 9.16683 25.0007 9.16683Z" fill="#2697FE"/>
<path d="M25.206 7.5955V6.7015H23.454V5.9875L25.464 3.4075H26.01V5.9815H26.538V6.7015H26.01V7.5955H25.206ZM24.258 5.9815H25.296V4.6255L24.258 5.9815Z" fill="white"/>
</svg>
