<svg width="40" height="40" viewBox="0 0 40 40" fill="none" xmlns="http://www.w3.org/2000/svg">
<path d="M28.0495 26.0667C29.1662 25.3333 30.6329 26.1333 30.6329 27.4667V29.6167C30.6329 31.7333 28.9829 34 26.9995 34.6667L21.6829 36.4333C20.7495 36.75 19.2329 36.75 18.3162 36.4333L12.9995 34.6667C10.9995 34 9.36621 31.7333 9.36621 29.6167V27.45C9.36621 26.1333 10.8329 25.3333 11.9329 26.05L15.3662 28.2833C16.6829 29.1667 18.3495 29.6 20.0162 29.6C21.6829 29.6 23.3495 29.1667 24.6662 28.2833L28.0495 26.0667Z" fill="#333333"/>
<path d="M33.2995 10.7667L23.3162 4.21667C21.5162 3.03333 18.5495 3.03333 16.7495 4.21667L6.71621 10.7667C3.49954 12.85 3.49954 17.5667 6.71621 19.6667L9.38288 21.4L16.7495 26.2C18.5495 27.3833 21.5162 27.3833 23.3162 26.2L30.6329 21.4L32.9162 19.9V25C32.9162 25.6833 33.4829 26.25 34.1662 26.25C34.8495 26.25 35.4162 25.6833 35.4162 25V16.8C36.0829 14.65 35.3995 12.15 33.2995 10.7667Z" fill="#333333"/>
</svg>
