<svg width="40" height="40" viewBox="0 0 40 40" fill="none" xmlns="http://www.w3.org/2000/svg">
<path d="M26.9835 3.33334H13.0168C6.95016 3.33334 3.3335 6.95001 3.3335 13.0167V26.9667C3.3335 33.05 6.95016 36.6667 13.0168 36.6667H26.9668C33.0335 36.6667 36.6502 33.05 36.6502 26.9833V13.0167C36.6668 6.95001 33.0502 3.33334 26.9835 3.33334ZM26.2668 26.2667C26.1668 27.6833 26.0502 29.45 22.8502 29.45H17.1502C13.9668 29.45 13.8335 27.6833 13.7335 26.2667L13.2168 19.6667C13.1835 19.2333 13.3335 18.8167 13.6168 18.5C13.9002 18.1833 14.3168 18.0167 14.7335 18.0167H25.2668C25.6835 18.0167 26.1002 18.2 26.3835 18.5C26.6668 18.8167 26.8168 19.2333 26.7835 19.65L26.2668 26.2667ZM28.0002 16.3667C27.9668 16.3667 27.9335 16.3667 27.9002 16.3667C26.1668 16.2 24.5835 16.0833 23.0668 16.0167C21.0335 15.9167 19.0002 15.8833 16.9502 15.9667C15.9502 16.0167 14.9335 16.0833 13.9335 16.1833L12.1168 16.3667C12.0835 16.3667 12.0335 16.3667 12.0002 16.3667C11.4168 16.3667 10.9168 15.9333 10.8668 15.3333C10.8002 14.7167 11.2668 14.15 11.8835 14.1L13.7002 13.9167C14.4168 13.85 15.1168 13.8 15.8335 13.7667L15.9668 12.9833C16.1002 12.15 16.3502 10.55 18.8502 10.55H21.1668C23.6835 10.55 23.9335 12.2 24.0502 13L24.1835 13.8C25.4335 13.8667 26.7168 13.9667 28.1168 14.1C28.7502 14.1667 29.2002 14.7167 29.1502 15.35C29.0835 15.9333 28.5835 16.3667 28.0002 16.3667Z" fill="white"/>
</svg>
