<svg width="28" height="28" viewBox="0 0 28 28" fill="none" xmlns="http://www.w3.org/2000/svg">
<path d="M4.66688 10.5858H10.5858V4.66688H18.6669V11.1847H20.2224V4.66688C20.2224 4.25432 20.0585 3.85866 19.7668 3.56694C19.4751 3.27522 19.0794 3.11133 18.6669 3.11133H8.45466L3.11133 8.45466V23.3336C3.11133 23.7461 3.27522 24.1418 3.56694 24.4335C3.85866 24.7252 4.25432 24.8891 4.66688 24.8891H18.6669C19.0794 24.8891 19.4751 24.7252 19.7668 24.4335C20.0585 24.1418 20.2224 23.7461 20.2224 23.3336H4.66688V10.5858ZM4.66688 9.09244L9.09244 4.66688H9.33355V9.33355H4.66688V9.09244Z" fill="#2ED903"/>
<path d="M22.0271 12.7163C21.8783 12.5889 21.6869 12.5223 21.4912 12.5299C21.2954 12.5374 21.1097 12.6186 20.9712 12.7571C20.8327 12.8956 20.7516 13.0813 20.744 13.2771C20.7364 13.4728 20.803 13.6642 20.9304 13.813L23.4582 16.333H14.0004C13.7942 16.333 13.5963 16.4149 13.4505 16.5608C13.3046 16.7067 13.2227 16.9045 13.2227 17.1108C13.2227 17.317 13.3046 17.5149 13.4505 17.6607C13.5963 17.8066 13.7942 17.8885 14.0004 17.8885H23.4815L20.9304 20.4397C20.849 20.5094 20.7829 20.5952 20.7362 20.6917C20.6895 20.7882 20.6633 20.8933 20.6591 21.0004C20.655 21.1075 20.6731 21.2143 20.7122 21.3141C20.7513 21.4139 20.8106 21.5046 20.8864 21.5804C20.9622 21.6562 21.0528 21.7155 21.1526 21.7546C21.2524 21.7937 21.3592 21.8117 21.4664 21.8076C21.5735 21.8035 21.6786 21.7772 21.7751 21.7305C21.8716 21.6839 21.9574 21.6177 22.0271 21.5363L26.4449 17.1108L22.0271 12.7163Z" fill="#2ED903"/>
</svg>
